<mxfile host="app.diagrams.net" modified="2024-04-10T12:43:59.245Z" agent="Mozilla/5.0 (Windows NT 10.0; Win64; x64) AppleWebKit/537.36 (KHTML, like Gecko) Chrome/121.0.0.0 Safari/537.36 Edg/121.0.0.0" etag="IxPU5ebWpW7ZC0QKWq6z" version="24.2.3" type="github">
  <diagram name="Page-1" id="40F3xFOu8TMAzaKEJhBd">
    <mxGraphModel dx="770" dy="502" grid="1" gridSize="10" guides="1" tooltips="1" connect="1" arrows="1" fold="1" page="1" pageScale="1" pageWidth="850" pageHeight="1100" math="0" shadow="0">
      <root>
        <mxCell id="0" />
        <mxCell id="1" parent="0" />
        <mxCell id="MS9MhjEfk2jpSJ9V4XVU-1" value="SIEM" style="swimlane;horizontal=0;whiteSpace=wrap;html=1;" vertex="1" parent="1">
          <mxGeometry x="40" y="80" width="720" height="200" as="geometry" />
        </mxCell>
        <mxCell id="MS9MhjEfk2jpSJ9V4XVU-2" value="Triage (ISO-Mail*)" style="swimlane;horizontal=0;whiteSpace=wrap;html=1;" vertex="1" parent="MS9MhjEfk2jpSJ9V4XVU-1">
          <mxGeometry y="200" width="720" height="200" as="geometry" />
        </mxCell>
        <mxCell id="MS9MhjEfk2jpSJ9V4XVU-17" style="edgeStyle=orthogonalEdgeStyle;rounded=0;orthogonalLoop=1;jettySize=auto;html=1;exitX=0.5;exitY=1;exitDx=0;exitDy=0;entryX=0.5;entryY=0;entryDx=0;entryDy=0;" edge="1" parent="MS9MhjEfk2jpSJ9V4XVU-2" source="MS9MhjEfk2jpSJ9V4XVU-7" target="MS9MhjEfk2jpSJ9V4XVU-12">
          <mxGeometry relative="1" as="geometry" />
        </mxCell>
        <mxCell id="MS9MhjEfk2jpSJ9V4XVU-7" value="ISO-Mail" style="rounded=0;whiteSpace=wrap;html=1;" vertex="1" parent="MS9MhjEfk2jpSJ9V4XVU-2">
          <mxGeometry x="50" y="30" width="150" height="50" as="geometry" />
        </mxCell>
        <mxCell id="MS9MhjEfk2jpSJ9V4XVU-18" value="Yes" style="edgeStyle=orthogonalEdgeStyle;rounded=0;orthogonalLoop=1;jettySize=auto;html=1;exitX=1;exitY=0.5;exitDx=0;exitDy=0;entryX=0;entryY=0.5;entryDx=0;entryDy=0;" edge="1" parent="MS9MhjEfk2jpSJ9V4XVU-2" source="MS9MhjEfk2jpSJ9V4XVU-12" target="MS9MhjEfk2jpSJ9V4XVU-13">
          <mxGeometry relative="1" as="geometry" />
        </mxCell>
        <mxCell id="MS9MhjEfk2jpSJ9V4XVU-12" value="False Positiv ?" style="rhombus;whiteSpace=wrap;html=1;" vertex="1" parent="MS9MhjEfk2jpSJ9V4XVU-2">
          <mxGeometry x="50" y="100" width="150" height="80" as="geometry" />
        </mxCell>
        <mxCell id="MS9MhjEfk2jpSJ9V4XVU-19" style="edgeStyle=orthogonalEdgeStyle;rounded=0;orthogonalLoop=1;jettySize=auto;html=1;exitX=1;exitY=0.5;exitDx=0;exitDy=0;entryX=0;entryY=0.5;entryDx=0;entryDy=0;" edge="1" parent="MS9MhjEfk2jpSJ9V4XVU-2" source="MS9MhjEfk2jpSJ9V4XVU-13" target="MS9MhjEfk2jpSJ9V4XVU-14">
          <mxGeometry relative="1" as="geometry" />
        </mxCell>
        <mxCell id="MS9MhjEfk2jpSJ9V4XVU-13" value="Archive" style="rounded=0;whiteSpace=wrap;html=1;" vertex="1" parent="MS9MhjEfk2jpSJ9V4XVU-2">
          <mxGeometry x="250" y="110" width="120" height="60" as="geometry" />
        </mxCell>
        <mxCell id="MS9MhjEfk2jpSJ9V4XVU-14" value="END" style="ellipse;whiteSpace=wrap;html=1;aspect=fixed;" vertex="1" parent="MS9MhjEfk2jpSJ9V4XVU-2">
          <mxGeometry x="400" y="100" width="80" height="80" as="geometry" />
        </mxCell>
        <mxCell id="MS9MhjEfk2jpSJ9V4XVU-11" style="edgeStyle=orthogonalEdgeStyle;rounded=0;orthogonalLoop=1;jettySize=auto;html=1;exitX=0.5;exitY=1;exitDx=0;exitDy=0;entryX=0.5;entryY=0;entryDx=0;entryDy=0;" edge="1" parent="MS9MhjEfk2jpSJ9V4XVU-1" source="MS9MhjEfk2jpSJ9V4XVU-8" target="MS9MhjEfk2jpSJ9V4XVU-9">
          <mxGeometry relative="1" as="geometry" />
        </mxCell>
        <mxCell id="MS9MhjEfk2jpSJ9V4XVU-8" value="Use Case Event Riggered" style="rounded=0;whiteSpace=wrap;html=1;" vertex="1" parent="MS9MhjEfk2jpSJ9V4XVU-1">
          <mxGeometry x="50" y="30" width="150" height="50" as="geometry" />
        </mxCell>
        <mxCell id="MS9MhjEfk2jpSJ9V4XVU-16" style="edgeStyle=orthogonalEdgeStyle;rounded=0;orthogonalLoop=1;jettySize=auto;html=1;exitX=0.5;exitY=1;exitDx=0;exitDy=0;entryX=0.5;entryY=0;entryDx=0;entryDy=0;" edge="1" parent="MS9MhjEfk2jpSJ9V4XVU-1" source="MS9MhjEfk2jpSJ9V4XVU-9" target="MS9MhjEfk2jpSJ9V4XVU-7">
          <mxGeometry relative="1" as="geometry" />
        </mxCell>
        <mxCell id="MS9MhjEfk2jpSJ9V4XVU-9" value="Submit Notification" style="rounded=0;whiteSpace=wrap;html=1;" vertex="1" parent="MS9MhjEfk2jpSJ9V4XVU-1">
          <mxGeometry x="50" y="110" width="150" height="50" as="geometry" />
        </mxCell>
        <mxCell id="MS9MhjEfk2jpSJ9V4XVU-23" style="edgeStyle=orthogonalEdgeStyle;rounded=0;orthogonalLoop=1;jettySize=auto;html=1;exitX=0;exitY=0;exitDx=0;exitDy=55;exitPerimeter=0;entryX=1;entryY=0.5;entryDx=0;entryDy=0;" edge="1" parent="MS9MhjEfk2jpSJ9V4XVU-1" source="MS9MhjEfk2jpSJ9V4XVU-22" target="MS9MhjEfk2jpSJ9V4XVU-9">
          <mxGeometry relative="1" as="geometry" />
        </mxCell>
        <mxCell id="MS9MhjEfk2jpSJ9V4XVU-22" value="Evidenz" style="shape=card;whiteSpace=wrap;html=1;" vertex="1" parent="MS9MhjEfk2jpSJ9V4XVU-1">
          <mxGeometry x="230" y="80" width="60" height="80" as="geometry" />
        </mxCell>
        <mxCell id="MS9MhjEfk2jpSJ9V4XVU-5" value="Event Analysis" style="swimlane;horizontal=0;whiteSpace=wrap;html=1;" vertex="1" parent="1">
          <mxGeometry x="40" y="480" width="720" height="200" as="geometry" />
        </mxCell>
        <mxCell id="MS9MhjEfk2jpSJ9V4XVU-6" value="Event Handling" style="swimlane;horizontal=0;whiteSpace=wrap;html=1;" vertex="1" parent="MS9MhjEfk2jpSJ9V4XVU-5">
          <mxGeometry y="200" width="720" height="200" as="geometry" />
        </mxCell>
        <mxCell id="MS9MhjEfk2jpSJ9V4XVU-20" value="TBD&lt;br&gt;(Business Owner" style="rounded=0;whiteSpace=wrap;html=1;" vertex="1" parent="MS9MhjEfk2jpSJ9V4XVU-5">
          <mxGeometry x="50" y="30" width="150" height="50" as="geometry" />
        </mxCell>
        <mxCell id="MS9MhjEfk2jpSJ9V4XVU-21" style="edgeStyle=orthogonalEdgeStyle;rounded=0;orthogonalLoop=1;jettySize=auto;html=1;exitX=0.5;exitY=1;exitDx=0;exitDy=0;entryX=0.5;entryY=0;entryDx=0;entryDy=0;" edge="1" parent="1" source="MS9MhjEfk2jpSJ9V4XVU-12" target="MS9MhjEfk2jpSJ9V4XVU-20">
          <mxGeometry relative="1" as="geometry" />
        </mxCell>
      </root>
    </mxGraphModel>
  </diagram>
</mxfile>
